<svg width="83" height="32" viewBox="0 0 83 32" fill="none" xmlns="http://www.w3.org/2000/svg">
<path d="M11.2744 32C9.19716 32 7.2976 31.5077 5.57569 30.5231C3.85379 29.5385 2.4872 28.1983 1.47592 26.5026C0.491973 24.8068 0 22.947 0 20.9231C0 18.8444 0.491973 16.9846 1.47592 15.3436C2.45986 13.6752 3.81279 12.3761 5.53469 11.4462C7.2566 10.5162 9.16983 10.0513 11.2744 10.0513C14.4995 10.0513 17.1644 11.2137 19.2689 13.5385L15.7841 17.2308C14.5542 16 13.0509 15.3846 11.2744 15.3846C9.71646 15.3846 8.40454 15.9043 7.33859 16.9436C6.27265 17.9829 5.73968 19.3094 5.73968 20.9231C5.73968 21.9897 5.98567 22.9607 6.47764 23.8359C6.96962 24.7111 7.63925 25.4085 8.48653 25.9282C9.33382 26.4205 10.2631 26.6667 11.2744 26.6667C12.1763 26.6667 13.0236 26.4889 13.8162 26.1333C14.6089 25.7504 15.2648 25.2444 15.7841 24.6154L19.4739 28.3077C18.408 29.4564 17.1781 30.359 15.7841 31.0154C14.3902 31.6718 12.887 32 11.2744 32Z" fill="#6B54DC"/>
<path d="M30.7075 32C28.6302 32 26.7443 31.5077 25.0498 30.5231C23.3552 29.5385 22.0296 28.1983 21.073 26.5026C20.1164 24.8068 19.6381 22.947 19.6381 20.9231C19.6381 18.8991 20.1164 17.0667 21.073 15.4256C22.0296 13.7573 23.3552 12.4444 25.0498 11.4872C26.7443 10.5299 28.6302 10.0513 30.7075 10.0513C32.7847 10.0513 34.6842 10.5299 36.4062 11.4872C38.1281 12.4444 39.481 13.7573 40.4649 15.4256C41.4762 17.0667 41.9818 18.8991 41.9818 20.9231C41.9818 22.947 41.4762 24.8068 40.4649 26.5026C39.481 28.1983 38.1281 29.5385 36.4062 30.5231C34.6842 31.5077 32.7847 32 30.7075 32ZM30.7075 26.6667C32.3474 26.6667 33.673 26.1333 34.6842 25.0667C35.7229 23.9727 36.2422 22.5915 36.2422 20.9231C36.2422 19.3094 35.7092 17.9829 34.6432 16.9436C33.5773 15.9043 32.2654 15.3846 30.7075 15.3846C29.1495 15.3846 27.865 15.9043 26.8537 16.9436C25.8697 17.9556 25.3778 19.2821 25.3778 20.9231C25.3778 22.5641 25.8834 23.9316 26.8947 25.0256C27.906 26.1197 29.1769 26.6667 30.7075 26.6667Z" fill="#6B54DC"/>
<path d="M50.1734 0V31.5897H44.4337V0H50.1734Z" fill="#6B54DC"/>
<path d="M71.4988 28.3508C69.972 29.8776 68.2613 30.9114 66.3669 31.4521C64.4917 31.9734 62.6164 31.9921 60.741 31.5081C58.8655 30.9855 57.1832 29.9796 55.694 28.4905C54.2629 27.0593 53.3053 25.4254 52.8214 23.5885C52.3181 21.7324 52.3078 19.8861 52.7905 18.0496C53.2925 16.1938 54.2586 14.5508 55.6888 13.1207C57.061 11.7485 58.6363 10.8307 60.4148 10.3673C62.1933 9.86524 63.9719 9.86584 65.7507 10.3691C67.5295 10.8337 69.1055 11.7526 70.4786 13.1257C70.7107 13.3578 70.9524 13.6575 71.2039 14.0249C71.436 14.373 71.6778 14.7501 71.9293 15.1562L61.0581 26.0273C62.199 26.743 63.3784 26.9948 64.5963 26.7825C65.8335 26.5509 66.974 25.9133 68.0176 24.8697C69.6024 23.2849 70.3268 21.5935 70.1909 19.7955L74.9758 19.6521C75.0536 21.1988 74.7931 22.7357 74.1943 24.2628C73.6149 25.7706 72.7163 27.1333 71.4988 28.3508ZM59.0249 16.4567C58.0779 17.4037 57.5079 18.4572 57.315 19.6171C57.122 20.777 57.3544 21.8984 58.0121 22.9813L65.2595 15.7339C62.9971 14.3218 60.9189 14.5627 59.0249 16.4567Z" fill="#6B54DC"/>
<path d="M83 28.718C83 30.4173 81.6233 31.7949 79.9252 31.7949C78.227 31.7949 76.8503 30.4173 76.8503 28.718C76.8503 27.0186 78.227 25.641 79.9252 25.641C81.6233 25.641 83 27.0186 83 28.718Z" fill="#6B54DC"/>
</svg>
