<svg width="10" height="11" viewBox="0 0 10 11" fill="none" xmlns="http://www.w3.org/2000/svg">
<path fill-rule="evenodd" clip-rule="evenodd" d="M7.28613 3.55029C8.785 3.5505 10 4.6845 10 6.0835V8.21631C9.99972 9.61508 8.78482 10.7493 7.28613 10.7495H2.71387C1.21518 10.7493 0.00028267 9.61508 0 8.21631V6.0835C0 4.6845 1.215 3.5505 2.71387 3.55029H7.28613ZM5 5.8667C4.58595 5.8667 4.25026 6.20173 4.25 6.61572V7.68213C4.25 8.09634 4.58579 8.43311 5 8.43311C5.41405 8.43311 5.74974 8.09709 5.75 7.68311V6.6167C5.75 6.20249 5.41421 5.8667 5 5.8667Z" fill="#FAFAFA"/>
<path d="M7.28578 3.95V3.03571C7.28578 1.77335 6.26243 0.75 5.00007 0.75C3.7377 0.75 2.71436 1.77335 2.71436 3.03571L2.71436 3.95" stroke="#FAFAFA" stroke-width="1.5"/>
</svg>
