<svg width="36" height="36" viewBox="0 0 36 36" fill="none" xmlns="http://www.w3.org/2000/svg">
<path d="M15.9632 25.2279C16.4631 25.1222 19.5093 25.1222 20.0092 25.2279C20.4366 25.3266 20.8987 25.5573 20.8987 26.0608C20.8738 26.5402 20.5926 26.9653 20.204 27.2352C19.7001 27.628 19.1088 27.8767 18.4906 27.9664C18.1487 28.0107 17.8128 28.0117 17.4828 27.9664C16.8636 27.8767 16.2723 27.628 15.7694 27.2342C15.3798 26.9653 15.0985 26.5402 15.0737 26.0608C15.0737 25.5573 15.5358 25.3266 15.9632 25.2279ZM18.0452 8C20.1254 8 22.2502 8.98702 23.5125 10.6247C24.3314 11.6792 24.7071 12.7327 24.7071 14.3703V14.7963C24.7071 16.0523 25.039 16.7925 25.7695 17.6456C26.3231 18.2741 26.5 19.0808 26.5 19.956C26.5 20.8302 26.2128 21.6601 25.6373 22.3339C24.884 23.1417 23.8215 23.6573 22.7372 23.747C21.1659 23.8809 19.5937 23.9937 18.0005 23.9937C16.4063 23.9937 14.835 23.9263 13.2638 23.747C12.1785 23.6573 11.116 23.1417 10.3637 22.3339C9.78822 21.6601 9.5 20.8302 9.5 19.956C9.5 19.0808 9.6779 18.2741 10.2305 17.6456C10.9838 16.7925 11.2939 16.0523 11.2939 14.7963V14.3703C11.2939 12.6883 11.7133 11.5885 12.577 10.5119C13.8611 8.9417 15.9194 8 17.9558 8H18.0452Z" fill="#C2C2C2"/>
</svg>
