<svg width="280" height="150" viewBox="0 0 280 150" fill="none" xmlns="http://www.w3.org/2000/svg">
<path d="M205.838 124.622H207.499L209.449 129.75L211.543 124.622H213.205L209.882 131.844L208.582 134.806H206.993L208.655 131.267L205.838 124.622Z" fill="black"/>
<path d="M201.211 131.989C200.546 131.989 199.944 131.82 199.405 131.483C198.866 131.156 198.442 130.708 198.134 130.14C197.826 129.562 197.672 128.927 197.672 128.233C197.672 127.521 197.826 126.88 198.134 126.312C198.442 125.734 198.866 125.287 199.405 124.969C199.944 124.641 200.546 124.478 201.211 124.478C201.711 124.478 202.169 124.579 202.583 124.781C203.007 124.983 203.344 125.267 203.594 125.633V124.622H205.038V131.844H203.594V130.833C203.344 131.199 203.007 131.483 202.583 131.686C202.169 131.888 201.711 131.989 201.211 131.989ZM201.427 130.544C202.072 130.544 202.592 130.333 202.987 129.909C203.392 129.476 203.594 128.917 203.594 128.233C203.594 127.521 203.397 126.957 203.002 126.543C202.607 126.129 202.082 125.922 201.427 125.922C200.772 125.922 200.233 126.139 199.809 126.572C199.395 126.996 199.188 127.55 199.188 128.233C199.188 128.917 199.395 129.476 199.809 129.909C200.233 130.333 200.772 130.544 201.427 130.544Z" fill="black"/>
<path d="M192.756 131.989C192.091 131.989 191.489 131.82 190.95 131.483C190.411 131.156 189.987 130.708 189.679 130.14C189.371 129.562 189.217 128.927 189.217 128.233C189.217 127.521 189.371 126.88 189.679 126.312C189.987 125.734 190.411 125.287 190.95 124.969C191.489 124.641 192.091 124.478 192.756 124.478C193.218 124.478 193.656 124.579 194.07 124.781C194.494 124.983 194.85 125.267 195.139 125.633V121.083H196.583V131.844H195.139V130.833C194.869 131.18 194.523 131.459 194.099 131.671C193.685 131.883 193.237 131.989 192.756 131.989ZM192.972 130.544C193.617 130.544 194.137 130.333 194.532 129.909C194.937 129.476 195.139 128.917 195.139 128.233C195.139 127.55 194.937 126.996 194.532 126.572C194.137 126.139 193.617 125.922 192.972 125.922C192.317 125.922 191.778 126.139 191.354 126.572C190.94 126.996 190.733 127.55 190.733 128.233C190.733 128.917 190.94 129.476 191.354 129.909C191.778 130.333 192.317 130.544 192.972 130.544Z" fill="black"/>
<path d="M181.92 124.622H183.581L185.531 129.75L187.625 124.622H189.287L185.964 131.844L184.664 134.806H183.075L184.737 131.267L181.92 124.622Z" fill="black"/>
<path d="M178.598 124.622V125.417C178.82 125.118 179.104 124.887 179.45 124.723C179.807 124.56 180.197 124.478 180.62 124.478C181.314 124.478 181.868 124.719 182.282 125.2L181.343 126.283C181.054 125.994 180.693 125.85 180.259 125.85C179.749 125.85 179.345 126.014 179.046 126.341C178.748 126.659 178.598 127.121 178.598 127.728V131.844H177.082V124.622H178.598Z" fill="black"/>
<path d="M172.745 131.989C172.013 131.989 171.353 131.825 170.766 131.498C170.188 131.18 169.735 130.737 169.408 130.169C169.081 129.591 168.917 128.946 168.917 128.233C168.917 127.521 169.076 126.88 169.393 126.312C169.721 125.734 170.164 125.287 170.722 124.969C171.281 124.641 171.907 124.478 172.6 124.478C173.265 124.478 173.857 124.632 174.377 124.94C174.906 125.248 175.321 125.672 175.619 126.211C175.918 126.75 176.067 127.352 176.067 128.017C176.067 128.306 176.043 128.546 175.995 128.739H170.361C170.467 129.346 170.737 129.822 171.17 130.169C171.603 130.516 172.128 130.689 172.745 130.689C173.149 130.689 173.52 130.617 173.857 130.472C174.203 130.318 174.483 130.101 174.695 129.822L175.633 130.689C175.306 131.093 174.887 131.411 174.377 131.642C173.866 131.873 173.322 131.989 172.745 131.989ZM172.6 125.778C172.013 125.778 171.517 125.937 171.112 126.254C170.718 126.572 170.467 127.015 170.361 127.583H174.622C174.584 127.015 174.382 126.572 174.016 126.254C173.659 125.937 173.188 125.778 172.6 125.778Z" fill="black"/>
<path d="M163.095 124.622L165.189 129.75L167.356 124.622H168.945L165.767 131.844H164.684L161.434 124.622H163.095Z" fill="black"/>
<path d="M160.928 121.372V122.744H155.439V125.778H160.494V127.15H155.439V130.4H160.928L161.072 131.844H154.428C154.245 131.844 154.115 131.806 154.038 131.729C153.961 131.652 153.922 131.522 153.922 131.339V121.372H160.928Z" fill="black"/>
<path d="M145.297 131.989C144.565 131.989 143.906 131.825 143.318 131.498C142.741 131.18 142.288 130.737 141.961 130.169C141.633 129.591 141.47 128.946 141.47 128.233C141.47 127.521 141.628 126.88 141.946 126.312C142.274 125.734 142.717 125.287 143.275 124.969C143.834 124.641 144.46 124.478 145.153 124.478C145.817 124.478 146.41 124.632 146.93 124.94C147.459 125.248 147.873 125.672 148.172 126.211C148.47 126.75 148.62 127.352 148.62 128.017C148.62 128.306 148.595 128.546 148.547 128.739H142.914C143.02 129.346 143.29 129.822 143.723 130.169C144.156 130.516 144.681 130.689 145.297 130.689C145.702 130.689 146.073 130.617 146.41 130.472C146.756 130.318 147.035 130.101 147.247 129.822L148.186 130.689C147.859 131.093 147.44 131.411 146.93 131.642C146.419 131.873 145.875 131.989 145.297 131.989ZM145.153 125.778C144.565 125.778 144.07 125.937 143.665 126.254C143.27 126.572 143.02 127.015 142.914 127.583H147.175C147.137 127.015 146.934 126.572 146.568 126.254C146.212 125.937 145.74 125.778 145.153 125.778Z" fill="black"/>
<path d="M135.647 124.622L137.742 129.75L139.909 124.622H141.497L138.32 131.844H137.236L133.986 124.622H135.647Z" fill="black"/>
<path d="M132.541 123.322C132.262 123.322 132.045 123.236 131.891 123.062C131.747 122.879 131.674 122.653 131.674 122.383C131.674 122.114 131.747 121.892 131.891 121.719C132.045 121.536 132.262 121.444 132.541 121.444C132.791 121.444 133.008 121.541 133.191 121.733C133.384 121.916 133.48 122.133 133.48 122.383C133.48 122.634 133.384 122.855 133.191 123.048C133.008 123.231 132.791 123.322 132.541 123.322ZM133.263 124.622V131.844H131.747V124.622H133.263Z" fill="black"/>
<path d="M125.605 121.372V130.4H130.66L130.733 131.844H124.594C124.411 131.844 124.281 131.806 124.204 131.729C124.127 131.652 124.088 131.522 124.088 131.339V121.372H125.605Z" fill="black"/>
<path d="M116.91 132.567C116.698 132.528 116.51 132.417 116.347 132.234C116.193 132.051 116.116 131.849 116.116 131.628C116.116 131.31 116.222 131.05 116.433 130.848C116.645 130.646 116.9 130.544 117.199 130.544C117.497 130.544 117.753 130.646 117.964 130.848C118.176 131.05 118.282 131.31 118.282 131.628C118.282 131.801 118.249 131.984 118.181 132.177C118.114 132.369 118.003 132.596 117.849 132.856L116.982 134.517L116.116 134.156L116.91 132.567Z" fill="black"/>
<path d="M110.226 125.994L110.153 124.622H111.959V123.683C111.959 123.154 112.07 122.682 112.291 122.268C112.522 121.854 112.845 121.531 113.259 121.3C113.673 121.059 114.154 120.939 114.703 120.939C115.117 120.939 115.479 121.006 115.787 121.141C116.104 121.266 116.393 121.464 116.653 121.733L115.714 122.672C115.58 122.537 115.435 122.446 115.281 122.398C115.127 122.34 114.934 122.311 114.703 122.311C114.299 122.311 113.981 122.422 113.75 122.643C113.519 122.865 113.403 123.187 113.403 123.611V124.622H115.714V125.994H113.403V131.844H111.959V125.994H110.226Z" fill="black"/>
<path d="M104.957 125.994L104.885 124.622H106.69V123.683C106.69 123.154 106.801 122.682 107.023 122.268C107.254 121.854 107.576 121.531 107.99 121.3C108.404 121.059 108.886 120.939 109.435 120.939C109.849 120.939 110.21 121.006 110.518 121.141C110.836 121.266 111.125 121.464 111.385 121.733L110.446 122.672C110.311 122.537 110.167 122.446 110.013 122.398C109.858 122.34 109.666 122.311 109.435 122.311C109.03 122.311 108.713 122.422 108.481 122.643C108.25 122.865 108.135 123.187 108.135 123.611V124.622H110.446V125.994H108.135V131.844H106.69V125.994H104.957Z" fill="black"/>
<path d="M99.1098 131.989C98.1372 131.989 97.2465 131.748 96.4376 131.267C95.6383 130.785 95.0028 130.13 94.5309 129.302C94.0687 128.474 93.8376 127.564 93.8376 126.572C93.8376 125.571 94.0639 124.666 94.5165 123.857C94.9787 123.038 95.6094 122.398 96.4087 121.936C97.2176 121.464 98.118 121.228 99.1098 121.228C100.102 121.228 100.997 121.464 101.796 121.936C102.605 122.398 103.236 123.038 103.689 123.857C104.151 124.666 104.382 125.571 104.382 126.572C104.382 127.574 104.151 128.489 103.689 129.317C103.236 130.145 102.605 130.795 101.796 131.267C100.997 131.748 100.102 131.989 99.1098 131.989ZM99.1098 130.544C99.8224 130.544 100.458 130.376 101.016 130.039C101.575 129.692 102.008 129.22 102.316 128.623C102.634 128.017 102.793 127.333 102.793 126.572C102.793 125.831 102.634 125.166 102.316 124.579C102.008 123.982 101.575 123.515 101.016 123.178C100.458 122.841 99.8224 122.672 99.1098 122.672C98.3972 122.672 97.752 122.836 97.1743 123.163C96.6061 123.491 96.1583 123.953 95.8309 124.55C95.5131 125.137 95.3543 125.811 95.3543 126.572C95.3543 127.333 95.5131 128.017 95.8309 128.623C96.1583 129.22 96.6061 129.692 97.1743 130.039C97.752 130.376 98.3972 130.544 99.1098 130.544Z" fill="black"/>
<path d="M84.3485 125.994L84.2041 124.622H86.0097V121.661H87.5263V124.622H89.2597V125.994H87.5263V131.844H86.0097V125.994H84.3485Z" fill="black"/>
<path d="M80.448 131.989C79.8606 131.989 79.3261 131.849 78.8447 131.57C78.3728 131.291 78.0021 130.91 77.7324 130.429C77.4724 129.947 77.3424 129.408 77.3424 128.811V124.622H78.8591V128.739C78.8591 129.317 78.9939 129.764 79.2635 130.082C79.5428 130.39 79.9376 130.544 80.448 130.544C80.9584 130.544 81.3628 130.386 81.6613 130.068C81.9598 129.75 82.1091 129.307 82.1091 128.739V124.622H83.6258V128.811C83.6258 129.427 83.4909 129.976 83.2213 130.458C82.9517 130.939 82.5761 131.315 82.0947 131.584C81.6132 131.854 81.0643 131.989 80.448 131.989Z" fill="black"/>
<path d="M72.5766 131.989C71.5848 131.989 70.6844 131.748 69.8755 131.267C69.0762 130.795 68.4455 130.145 67.9833 129.317C67.5307 128.489 67.3044 127.574 67.3044 126.572C67.3044 125.571 67.5307 124.666 67.9833 123.857C68.4455 123.038 69.0762 122.398 69.8755 121.936C70.6844 121.464 71.5848 121.228 72.5766 121.228C73.3566 121.228 74.0692 121.363 74.7144 121.632C75.3596 121.892 75.9229 122.263 76.4044 122.744L75.321 123.828C74.9936 123.462 74.594 123.178 74.1222 122.976C73.6599 122.773 73.1448 122.672 72.5766 122.672C71.864 122.672 71.2188 122.836 70.6411 123.163C70.0729 123.491 69.6251 123.953 69.2977 124.55C68.9799 125.137 68.821 125.811 68.821 126.572C68.821 127.333 68.9799 128.017 69.2977 128.623C69.6251 129.22 70.0729 129.692 70.6411 130.039C71.2188 130.376 71.864 130.544 72.5766 130.544C73.164 130.544 73.6936 130.439 74.1655 130.227C74.6373 130.005 75.0466 129.702 75.3933 129.317L76.4766 130.4C75.9855 130.891 75.4125 131.276 74.7577 131.556C74.1029 131.844 73.3759 131.989 72.5766 131.989Z" fill="black"/>
<path d="M70.4813 98.0752C65.7037 98.0752 61.3347 96.9416 57.3743 94.6745C53.4139 92.4074 50.2707 89.3216 47.9448 85.4172C45.6817 81.5127 44.5502 77.2304 44.5502 72.5703C44.5502 67.7842 45.6817 63.5019 47.9448 59.7234C50.2079 55.8819 53.3196 52.8906 57.28 50.7495C61.2404 48.6083 65.6408 47.5377 70.4813 47.5377C77.8991 47.5377 84.0283 50.2142 88.8688 55.5671L80.8537 64.0687C78.0248 61.2348 74.5674 59.8179 70.4813 59.8179C66.8981 59.8179 63.8806 61.0144 61.429 63.4074C58.9773 65.8005 57.7515 68.8548 57.7515 72.5703C57.7515 75.0263 58.3172 77.2619 59.4488 79.2771C60.5803 81.2923 62.1205 82.8982 64.0692 84.0947C66.018 85.2283 68.1553 85.795 70.4813 85.795C72.5558 85.795 74.5045 85.3857 76.3275 84.567C78.1506 83.6854 79.6593 82.5203 80.8537 81.0719L89.3402 89.5735C86.8886 92.2185 84.0597 94.2967 80.8537 95.8081C77.6477 97.3195 74.1902 98.0752 70.4813 98.0752Z" fill="#6C54DD"/>
<path d="M115.177 98.0752C110.4 98.0752 106.062 96.9416 102.165 94.6745C98.2672 92.4074 95.2183 89.3216 93.0181 85.4172C90.8179 81.5127 89.7178 77.2304 89.7178 72.5703C89.7178 67.9101 90.8179 63.6908 93.0181 59.9123C95.2183 56.0709 98.2672 53.0481 102.165 50.8439C106.062 48.6398 110.4 47.5377 115.177 47.5377C119.955 47.5377 124.324 48.6398 128.284 50.8439C132.245 53.0481 135.356 56.0709 137.62 59.9123C139.945 63.6908 141.108 67.9101 141.108 72.5703C141.108 77.2304 139.945 81.5127 137.62 85.4172C135.356 89.3216 132.245 92.4074 128.284 94.6745C124.324 96.9416 119.955 98.0752 115.177 98.0752ZM115.177 85.795C118.949 85.795 121.998 84.567 124.324 82.111C126.713 79.592 127.907 76.4118 127.907 72.5703C127.907 68.8548 126.681 65.8005 124.23 63.4074C121.778 61.0144 118.761 59.8179 115.177 59.8179C111.594 59.8179 108.64 61.0144 106.314 63.4074C104.051 65.7375 102.919 68.7918 102.919 72.5703C102.919 76.3488 104.082 79.4976 106.408 82.0165C108.734 84.5355 111.657 85.795 115.177 85.795Z" fill="#6C54DD"/>
<path d="M159.949 24.3944V97.1305H146.748V24.3944H159.949Z" fill="#6C54DD"/>
<path d="M212.74 84.2159C210.257 88.5167 207.071 91.831 203.181 94.1587C199.324 96.432 195.166 97.5882 190.708 97.6274C186.226 97.5806 181.886 96.345 177.686 93.9204C173.65 91.5903 170.546 88.528 168.374 84.7333C166.148 80.9071 165.023 76.8097 165 72.4412C165.008 68.0182 166.176 63.7924 168.501 59.7638C170.733 55.8985 173.688 52.9223 177.365 50.8353C181.019 48.6624 184.974 47.6065 189.229 47.6677C193.461 47.643 197.513 48.7484 201.385 50.984C202.039 51.3619 202.756 51.8844 203.534 52.5515C204.258 53.1871 205.02 53.8815 205.822 54.6345L188.141 85.2576C191.105 86.1702 193.877 86.0286 196.458 84.833C199.071 83.5829 201.226 81.488 202.923 78.5481C205.5 74.084 206.101 69.8942 204.726 65.9789L215.278 62.8161C216.374 66.2073 216.712 69.778 216.293 73.5279C215.904 77.2234 214.72 80.7861 212.74 84.2159ZM177.909 65.1954C176.369 67.863 175.731 70.5431 175.994 73.2358C176.257 75.9284 177.443 78.2826 179.552 80.2984L191.339 59.8829C185.466 58.0893 180.99 59.8602 177.909 65.1954Z" fill="#6C54DD"/>
<path d="M235.45 90.5182C235.45 94.431 232.284 97.6029 228.378 97.6029C224.472 97.6029 221.306 94.431 221.306 90.5182C221.306 86.6054 224.472 83.4335 228.378 83.4335C232.284 83.4335 235.45 86.6054 235.45 90.5182Z" fill="#6C54DD"/>
</svg>
