<svg width="40" height="20" viewBox="0 0 40 20" fill="none" xmlns="http://www.w3.org/2000/svg">
<path d="M6.89009 17C5.98913 17 5.16522 16.7846 4.41837 16.3538C3.67152 15.9231 3.07878 15.3368 2.64016 14.5949C2.21339 13.853 2 13.0393 2 12.1538C2 11.2444 2.21339 10.4308 2.64016 9.71282C3.06693 8.98291 3.65374 8.41453 4.40059 8.00769C5.14744 7.60085 5.97727 7.39744 6.89009 7.39744C8.28895 7.39744 9.44479 7.90598 10.3576 8.92308L8.84613 10.5385C8.31266 10 7.66065 9.73077 6.89009 9.73077C6.21437 9.73077 5.64534 9.95812 5.18301 10.4128C4.72067 10.8675 4.4895 11.4479 4.4895 12.1538C4.4895 12.6205 4.59619 13.0453 4.80958 13.4282C5.02297 13.8111 5.31341 14.1162 5.68091 14.3436C6.0484 14.559 6.45147 14.6667 6.89009 14.6667C7.2813 14.6667 7.6488 14.5889 7.99258 14.4333C8.33637 14.2658 8.62089 14.0444 8.84613 13.7692L10.4465 15.3846C9.98419 15.8872 9.45072 16.2821 8.84613 16.5692C8.24153 16.8564 7.58952 17 6.89009 17Z" fill="#6C54DD"/>
<path d="M15.3189 17C14.4179 17 13.6 16.7846 12.865 16.3538C12.13 15.9231 11.555 15.3368 11.1401 14.5949C10.7252 13.853 10.5177 13.0393 10.5177 12.1538C10.5177 11.2684 10.7252 10.4667 11.1401 9.74872C11.555 9.0188 12.13 8.44444 12.865 8.02564C13.6 7.60684 14.4179 7.39744 15.3189 7.39744C16.2199 7.39744 17.0438 7.60684 17.7906 8.02564C18.5375 8.44444 19.1243 9.0188 19.5511 9.74872C19.9897 10.4667 20.209 11.2684 20.209 12.1538C20.209 13.0393 19.9897 13.853 19.5511 14.5949C19.1243 15.3368 18.5375 15.9231 17.7906 16.3538C17.0438 16.7846 16.2199 17 15.3189 17ZM15.3189 14.6667C16.0302 14.6667 16.6051 14.4333 17.0438 13.9667C17.4942 13.488 17.7195 12.8838 17.7195 12.1538C17.7195 11.4479 17.4883 10.8675 17.026 10.4128C16.5637 9.95812 15.9946 9.73077 15.3189 9.73077C14.6432 9.73077 14.086 9.95812 13.6474 10.4128C13.2206 10.8556 13.0072 11.4359 13.0072 12.1538C13.0072 12.8718 13.2265 13.4701 13.6652 13.9487C14.1038 14.4274 14.655 14.6667 15.3189 14.6667Z" fill="#6C54DD"/>
<path d="M23.7619 3V16.8205H21.2724V3H23.7619Z" fill="#6C54DD"/>
<path d="M33.7172 14.3666C33.249 15.1838 32.6481 15.8136 31.9148 16.2558C31.1873 16.6878 30.4032 16.9075 29.5624 16.9149C28.7173 16.906 27.8988 16.6712 27.1069 16.2106C26.3458 15.7678 25.7604 15.1859 25.3508 14.4649C24.9309 13.7379 24.7188 12.9594 24.7144 12.1293C24.716 11.2889 24.9362 10.486 25.3748 9.72049C25.7956 8.98605 26.3528 8.42055 27.0463 8.024C27.7354 7.61112 28.4811 7.4105 29.2835 7.42213C30.0816 7.41743 30.8457 7.62747 31.5759 8.05226C31.6994 8.12405 31.8345 8.22333 31.9812 8.35009C32.1177 8.47087 32.2615 8.6028 32.4127 8.74589L29.0785 14.5646C29.6374 14.7379 30.1602 14.7111 30.6469 14.4839C31.1395 14.2463 31.5459 13.8483 31.866 13.2897C32.352 12.4415 32.4654 11.6454 32.206 10.9014L34.1959 10.3005C34.4026 10.9448 34.4664 11.6233 34.3872 12.3358C34.314 13.038 34.0907 13.7149 33.7172 14.3666ZM27.1489 10.7525C26.8585 11.2594 26.7381 11.7687 26.7877 12.2803C26.8374 12.7919 27.061 13.2392 27.4587 13.6222L29.6814 9.74313C28.574 9.40233 27.7298 9.7388 27.1489 10.7525Z" fill="#6C54DD"/>
<path d="M38 15.5641C38 16.3076 37.4029 16.9103 36.6663 16.9103C35.9298 16.9103 35.3327 16.3076 35.3327 15.5641C35.3327 14.8206 35.9298 14.218 36.6663 14.218C37.4029 14.218 38 14.8206 38 15.5641Z" fill="#6C54DD"/>
</svg>
